<svg xmlns="http://www.w3.org/2000/svg" version="1.1" xmlns:xlink="http://www.w3.org/1999/xlink" xmlns:svgjs="http://svgjs.com/svgjs" width="1440" height="560" preserveAspectRatio="none" viewBox="0 0 1440 560"><g mask="url(&quot;#SvgjsMask1001&quot;)" fill="none"><rect width="1440" height="560" x="0" y="0" fill="rgba(81, 0, 58, 1)"></rect><path d="M0,676.942C126.218,653.803,168.954,494.201,258.593,402.379C324.496,334.872,407.953,289.284,457.074,208.739C510.843,120.572,557.724,23.706,552.429,-79.427C546.906,-187.009,493.563,-285.328,427.348,-370.299C358.585,-458.539,273.134,-534.01,168.126,-572.584C58.853,-612.725,-61.051,-620.99,-173.543,-591.032C-287.702,-560.63,-388.12,-492.625,-465.928,-403.729C-543.989,-314.544,-620.048,-206.575,-613.632,-88.227C-607.403,26.666,-482.946,94.081,-433.312,197.887C-384.973,298.986,-402.837,426.749,-327.665,509.857C-243.722,602.662,-123.086,699.507,0,676.942" fill="#41002e"></path><path d="M1440 1049.284C1529.199 1035.002 1599.833 975.765 1674.914 925.533 1748.541 876.274 1833.106 836.738 1874.642 758.494 1917.224 678.28 1915.57 583.356 1904.404 493.229 1893.069 401.74199999999996 1876.011 303.789 1810.295 239.137 1745.991 175.87400000000002 1643.191 186.86 1559.298 153.709 1464.227 116.14100000000002 1386.481 20.813999999999965 1284.815 31.488000000000056 1181.0729999999999 42.379999999999995 1081.254 115.45100000000002 1034.68 208.788 989.812 298.706 1067.0720000000001 404.924 1049.137 503.802 1030.0819999999999 608.853 907.486 688.889 928.6120000000001 793.543 949.485 896.944 1056.849 962.206 1151.196 1009.3879999999999 1239.912 1053.754 1342.057 1064.966 1440 1049.284" fill="#610046"></path></g><defs><mask id="SvgjsMask1001"><rect width="1440" height="560" fill="#ffffff"></rect></mask></defs></svg>